<svg width="166" height="40" viewBox="0 0 166 40" fill="none" xmlns="http://www.w3.org/2000/svg">
<g opacity="0.8">
<rect x="0.5" y="0.5" width="165" height="39" rx="4.5" stroke="#444444" stroke-opacity="0.3"/>
<g clip-path="url(#clip0)">
<path fill-rule="evenodd" clip-rule="evenodd" d="M27.5 9C21.1503 9 16 14.0503 16 20.2767C16 25.2579 19.316 29.478 23.8313 31C24.3957 31.0692 24.6074 30.7233 24.6074 30.4465C24.6074 30.1698 24.6074 29.478 24.6074 28.5094C21.4325 29.2013 20.727 26.9874 20.727 26.9874C20.2331 25.673 19.4571 25.327 19.4571 25.327C18.3988 24.6352 19.5276 24.6352 19.5276 24.6352C20.6564 24.7044 21.2914 25.8113 21.2914 25.8113C22.3497 27.5409 23.9724 27.0566 24.6074 26.7799C24.6779 26.0189 25.0307 25.5346 25.3129 25.2579C22.773 24.9811 20.092 24.0126 20.092 19.6541C20.092 18.4088 20.5153 17.4403 21.2914 16.6101C21.2209 16.4025 20.7975 15.2264 21.4325 13.7044C21.4325 13.7044 22.4202 13.4277 24.6074 14.8805C25.5245 14.6038 26.5123 14.5346 27.5 14.5346C28.4877 14.5346 29.4755 14.673 30.3926 14.8805C32.5798 13.4277 33.5675 13.7044 33.5675 13.7044C34.2025 15.2264 33.7791 16.4025 33.7086 16.6792C34.4141 17.4403 34.908 18.478 34.908 19.7233C34.908 24.0818 32.227 24.9811 29.6871 25.2579C30.1104 25.6038 30.4632 26.2956 30.4632 27.3333C30.4632 28.8553 30.4632 30.0314 30.4632 30.4465C30.4632 30.7233 30.6748 31.0692 31.2393 31C35.8252 29.478 39.0706 25.2579 39.0706 20.2767C39 14.0503 33.8497 9 27.5 9Z" fill="#444444"/>
</g>
<path d="M49.1136 15.2727H48.0568V24H49.1136V15.2727ZM52.1019 20.0625C52.1019 18.9205 52.8093 18.2727 53.7724 18.2727C54.7056 18.2727 55.2724 18.8821 55.2724 19.9091V24H56.2781V19.8409C56.2781 18.1705 55.3874 17.3693 54.0621 17.3693C53.0735 17.3693 52.4599 17.8125 52.1531 18.4773H52.0678V17.4545H51.0962V24H52.1019V20.0625ZM62.7521 18.9205C62.4368 17.9915 61.7294 17.3693 60.4339 17.3693C59.0533 17.3693 58.0305 18.1534 58.0305 19.2614C58.0305 20.1648 58.5675 20.7699 59.7692 21.0511L60.8601 21.3068C61.5206 21.4602 61.8317 21.7756 61.8317 22.2273C61.8317 22.7898 61.2351 23.25 60.2976 23.25C59.4751 23.25 58.9595 22.8963 58.7805 22.1932L57.826 22.4318C58.0604 23.544 58.9766 24.1364 60.3146 24.1364C61.8359 24.1364 62.8714 23.3054 62.8714 22.1761C62.8714 21.2642 62.3004 20.6889 61.1328 20.4034L60.1612 20.1648C59.3857 19.973 59.0362 19.7131 59.0362 19.2102C59.0362 18.6477 59.6328 18.2386 60.4339 18.2386C61.3118 18.2386 61.674 18.7244 61.8487 19.1761L62.7521 18.9205ZM67.2319 17.4545H65.8342V15.8864H64.8285V17.4545H63.8398V18.3068H64.8285V22.3977C64.8285 23.5398 65.7489 24.0852 66.6012 24.0852C66.9762 24.0852 67.2148 24.017 67.3512 23.9659L67.1467 23.0625C67.0614 23.0795 66.9251 23.1136 66.7035 23.1136C66.2603 23.1136 65.8342 22.9773 65.8342 22.125V18.3068H67.2319V17.4545ZM70.6708 24.1534C71.8129 24.1534 72.4094 23.5398 72.614 23.1136H72.6651V24H73.6708V19.6875C73.6708 17.608 72.0856 17.3693 71.2504 17.3693C70.2617 17.3693 69.1367 17.7102 68.6254 18.9034L69.5799 19.2443C69.8015 18.767 70.3256 18.2557 71.2844 18.2557C72.2092 18.2557 72.6651 18.7457 72.6651 19.5852V19.6193C72.6651 20.1051 72.1708 20.0625 70.9776 20.2159C69.7631 20.3736 68.4379 20.642 68.4379 22.142C68.4379 23.4205 69.4265 24.1534 70.6708 24.1534ZM70.8242 23.25C70.0231 23.25 69.4435 22.892 69.4435 22.1932C69.4435 21.4261 70.1424 21.1875 70.9265 21.0852C71.3526 21.0341 72.4947 20.9148 72.6651 20.7102V21.6307C72.6651 22.4489 72.0174 23.25 70.8242 23.25ZM76.5121 15.2727H75.5064V24H76.5121V15.2727ZM79.3597 15.2727H78.354V24H79.3597V15.2727ZM87.4233 17.4545H86.0256V15.8864H85.0199V17.4545H84.0312V18.3068H85.0199V22.3977C85.0199 23.5398 85.9403 24.0852 86.7926 24.0852C87.1676 24.0852 87.4062 24.017 87.5426 23.9659L87.3381 23.0625C87.2528 23.0795 87.1165 23.1136 86.8949 23.1136C86.4517 23.1136 86.0256 22.9773 86.0256 22.125V18.3068H87.4233V17.4545ZM90.0824 20.0625C90.0824 18.9205 90.8111 18.2727 91.804 18.2727C92.75 18.2727 93.321 18.8693 93.321 19.9091V24H94.3267V19.8409C94.3267 18.1577 93.4318 17.3693 92.0938 17.3693C91.0625 17.3693 90.4744 17.7997 90.1676 18.4773H90.0824V15.2727H89.0767V24H90.0824V20.0625ZM98.9109 24.1364C100.24 24.1364 101.212 23.4716 101.519 22.483L100.547 22.2102C100.292 22.892 99.6992 23.233 98.9109 23.233C97.7305 23.233 96.9165 22.4702 96.8697 21.0682H101.621V20.642C101.621 18.2045 100.172 17.3693 98.8086 17.3693C97.0359 17.3693 95.8597 18.767 95.8597 20.7784C95.8597 22.7898 97.0188 24.1364 98.9109 24.1364ZM96.8697 20.1989C96.9379 19.1804 97.658 18.2727 98.8086 18.2727C99.8995 18.2727 100.598 19.0909 100.598 20.1989H96.8697ZM107.02 24L107.898 21.5284H111.426L112.304 24H113.412L110.208 15.2727H109.117L105.912 24H107.02ZM108.23 20.5909L109.628 16.6534H109.696L111.094 20.5909H108.23ZM114.635 26.4545H115.641V22.9943H115.726C115.948 23.3523 116.374 24.1364 117.635 24.1364C119.272 24.1364 120.414 22.8239 120.414 20.7443C120.414 18.6818 119.272 17.3693 117.618 17.3693C116.34 17.3693 115.948 18.1534 115.726 18.4943H115.607V17.4545H114.635V26.4545ZM115.624 20.7273C115.624 19.2614 116.272 18.2727 117.499 18.2727C118.777 18.2727 119.408 19.3466 119.408 20.7273C119.408 22.125 118.76 23.233 117.499 23.233C116.289 23.233 115.624 22.2102 115.624 20.7273ZM121.948 26.4545H122.953V22.9943H123.039C123.26 23.3523 123.686 24.1364 124.948 24.1364C126.584 24.1364 127.726 22.8239 127.726 20.7443C127.726 18.6818 126.584 17.3693 124.931 17.3693C123.652 17.3693 123.26 18.1534 123.039 18.4943H122.919V17.4545H121.948V26.4545ZM122.936 20.7273C122.936 19.2614 123.584 18.2727 124.811 18.2727C126.09 18.2727 126.721 19.3466 126.721 20.7273C126.721 22.125 126.073 23.233 124.811 23.233C123.601 23.233 122.936 22.2102 122.936 20.7273Z" fill="#3D3939"/>
</g>
<defs>
<clipPath id="clip0">
<rect width="23" height="22" fill="white" transform="translate(16 9)"/>
</clipPath>
</defs>
</svg>
