<svg width="166" height="40" viewBox="0 0 166 40" fill="none" xmlns="http://www.w3.org/2000/svg">
<g opacity="0.8">
<rect x="0.5" y="0.5" width="165" height="39" rx="4.5" stroke="#444444" stroke-opacity="0.3"/>
<g clip-path="url(#clip0)">
<path fill-rule="evenodd" clip-rule="evenodd" d="M27.5 9C21.1503 9 16 14.0503 16 20.2767C16 25.2579 19.316 29.478 23.8313 31C24.3957 31.0692 24.6074 30.7233 24.6074 30.4465C24.6074 30.1698 24.6074 29.478 24.6074 28.5094C21.4325 29.2013 20.727 26.9874 20.727 26.9874C20.2331 25.673 19.4571 25.327 19.4571 25.327C18.3988 24.6352 19.5276 24.6352 19.5276 24.6352C20.6564 24.7044 21.2914 25.8113 21.2914 25.8113C22.3497 27.5409 23.9724 27.0566 24.6074 26.7799C24.6779 26.0189 25.0307 25.5346 25.3129 25.2579C22.773 24.9811 20.092 24.0126 20.092 19.6541C20.092 18.4088 20.5153 17.4403 21.2914 16.6101C21.2209 16.4025 20.7975 15.2264 21.4325 13.7044C21.4325 13.7044 22.4202 13.4277 24.6074 14.8805C25.5245 14.6038 26.5123 14.5346 27.5 14.5346C28.4877 14.5346 29.4755 14.673 30.3926 14.8805C32.5798 13.4277 33.5675 13.7044 33.5675 13.7044C34.2025 15.2264 33.7791 16.4025 33.7086 16.6792C34.4141 17.4403 34.908 18.478 34.908 19.7233C34.908 24.0818 32.227 24.9811 29.6871 25.2579C30.1104 25.6038 30.4632 26.2956 30.4632 27.3333C30.4632 28.8553 30.4632 30.0314 30.4632 30.4465C30.4632 30.7233 30.6748 31.0692 31.2393 31C35.8252 29.478 39.0706 25.2579 39.0706 20.2767C39 14.0503 33.8497 9 27.5 9Z" fill="#444444"/>
</g>
<path d="M55.0795 18C54.7557 16.2102 53.3239 15.1534 51.5682 15.1534C49.3352 15.1534 47.7159 16.875 47.7159 19.6364C47.7159 22.3977 49.3352 24.1193 51.5682 24.1193C53.3239 24.1193 54.7557 23.0625 55.0795 21.2727H54.0227C53.767 22.483 52.7273 23.1307 51.5682 23.1307C49.983 23.1307 48.7386 21.9034 48.7386 19.6364C48.7386 17.3693 49.983 16.142 51.5682 16.142C52.7273 16.142 53.767 16.7898 54.0227 18H55.0795ZM56.6509 24H57.6566V19.858C57.6566 18.9716 58.3555 18.3239 59.31 18.3239C59.5785 18.3239 59.8555 18.375 59.9237 18.392V17.3693C59.8086 17.3608 59.5444 17.3523 59.3952 17.3523C58.6112 17.3523 57.9293 17.7955 57.6907 18.4432H57.6225V17.4545H56.6509V24ZM63.6609 24.1364C64.9904 24.1364 65.962 23.4716 66.2688 22.483L65.2972 22.2102C65.0415 22.892 64.4492 23.233 63.6609 23.233C62.4805 23.233 61.6665 22.4702 61.6197 21.0682H66.3711V20.642C66.3711 18.2045 64.9222 17.3693 63.5586 17.3693C61.7859 17.3693 60.6097 18.767 60.6097 20.7784C60.6097 22.7898 61.7688 24.1364 63.6609 24.1364ZM61.6197 20.1989C61.6879 19.1804 62.408 18.2727 63.5586 18.2727C64.6495 18.2727 65.3484 19.0909 65.3484 20.1989H61.6197ZM69.8271 24.1534C70.9691 24.1534 71.5657 23.5398 71.7702 23.1136H71.8214V24H72.8271V19.6875C72.8271 17.608 71.2418 17.3693 70.4066 17.3693C69.418 17.3693 68.293 17.7102 67.7816 18.9034L68.7362 19.2443C68.9577 18.767 69.4819 18.2557 70.4407 18.2557C71.3654 18.2557 71.8214 18.7457 71.8214 19.5852V19.6193C71.8214 20.1051 71.3271 20.0625 70.1339 20.2159C68.9194 20.3736 67.5941 20.642 67.5941 22.142C67.5941 23.4205 68.5827 24.1534 69.8271 24.1534ZM69.9805 23.25C69.1793 23.25 68.5998 22.892 68.5998 22.1932C68.5998 21.4261 69.2987 21.1875 70.0827 21.0852C70.5089 21.0341 71.6509 20.9148 71.8214 20.7102V21.6307C71.8214 22.4489 71.1737 23.25 69.9805 23.25ZM77.5092 17.4545H76.1115V15.8864H75.1058V17.4545H74.1172V18.3068H75.1058V22.3977C75.1058 23.5398 76.0263 24.0852 76.8786 24.0852C77.2536 24.0852 77.4922 24.017 77.6286 23.9659L77.424 23.0625C77.3388 23.0795 77.2024 23.1136 76.9808 23.1136C76.5376 23.1136 76.1115 22.9773 76.1115 22.125V18.3068H77.5092V17.4545ZM81.696 24.1364C83.0256 24.1364 83.9972 23.4716 84.304 22.483L83.3324 22.2102C83.0767 22.892 82.4844 23.233 81.696 23.233C80.5156 23.233 79.7017 22.4702 79.6548 21.0682H84.4062V20.642C84.4062 18.2045 82.9574 17.3693 81.5938 17.3693C79.821 17.3693 78.6449 18.767 78.6449 20.7784C78.6449 22.7898 79.804 24.1364 81.696 24.1364ZM79.6548 20.1989C79.723 19.1804 80.4432 18.2727 81.5938 18.2727C82.6847 18.2727 83.3835 19.0909 83.3835 20.1989H79.6548ZM89.4474 24H90.5043V20.5909H92.4134C92.4901 20.5909 92.5625 20.5909 92.6349 20.5866L94.4759 24H95.7031L93.7301 20.3949C94.8423 20.0156 95.3622 19.108 95.3622 17.9489C95.3622 16.4062 94.4418 15.2727 92.3963 15.2727H89.4474V24ZM90.5043 19.6364V16.2102H92.3622C93.777 16.2102 94.3224 16.9006 94.3224 17.9489C94.3224 18.9972 93.777 19.6364 92.3793 19.6364H90.5043ZM99.6609 24.1364C100.99 24.1364 101.962 23.4716 102.269 22.483L101.297 22.2102C101.042 22.892 100.449 23.233 99.6609 23.233C98.4805 23.233 97.6665 22.4702 97.6197 21.0682H102.371V20.642C102.371 18.2045 100.922 17.3693 99.5586 17.3693C97.7859 17.3693 96.6097 18.767 96.6097 20.7784C96.6097 22.7898 97.7688 24.1364 99.6609 24.1364ZM97.6197 20.1989C97.6879 19.1804 98.408 18.2727 99.5586 18.2727C100.65 18.2727 101.348 19.0909 101.348 20.1989H97.6197ZM103.901 26.4545H104.907V22.9943H104.992C105.213 23.3523 105.64 24.1364 106.901 24.1364C108.537 24.1364 109.679 22.8239 109.679 20.7443C109.679 18.6818 108.537 17.3693 106.884 17.3693C105.605 17.3693 105.213 18.1534 104.992 18.4943H104.873V17.4545H103.901V26.4545ZM104.89 20.7273C104.89 19.2614 105.537 18.2727 106.765 18.2727C108.043 18.2727 108.674 19.3466 108.674 20.7273C108.674 22.125 108.026 23.233 106.765 23.233C105.554 23.233 104.89 22.2102 104.89 20.7273ZM113.873 24.1364C115.645 24.1364 116.838 22.7898 116.838 20.7614C116.838 18.7159 115.645 17.3693 113.873 17.3693C112.1 17.3693 110.907 18.7159 110.907 20.7614C110.907 22.7898 112.1 24.1364 113.873 24.1364ZM113.873 23.233C112.526 23.233 111.912 22.0739 111.912 20.7614C111.912 19.4489 112.526 18.2727 113.873 18.2727C115.219 18.2727 115.833 19.4489 115.833 20.7614C115.833 22.0739 115.219 23.233 113.873 23.233ZM123.01 18.9205C122.695 17.9915 121.987 17.3693 120.692 17.3693C119.311 17.3693 118.288 18.1534 118.288 19.2614C118.288 20.1648 118.825 20.7699 120.027 21.0511L121.118 21.3068C121.778 21.4602 122.089 21.7756 122.089 22.2273C122.089 22.7898 121.493 23.25 120.555 23.25C119.733 23.25 119.217 22.8963 119.038 22.1932L118.084 22.4318C118.318 23.544 119.234 24.1364 120.572 24.1364C122.094 24.1364 123.129 23.3054 123.129 22.1761C123.129 21.2642 122.558 20.6889 121.391 20.4034L120.419 20.1648C119.643 19.973 119.294 19.7131 119.294 19.2102C119.294 18.6477 119.891 18.2386 120.692 18.2386C121.57 18.2386 121.932 18.7244 122.107 19.1761L123.01 18.9205ZM124.643 24H125.649V17.4545H124.643V24ZM125.154 16.3636C125.547 16.3636 125.87 16.0568 125.87 15.6818C125.87 15.3068 125.547 15 125.154 15C124.762 15 124.439 15.3068 124.439 15.6818C124.439 16.0568 124.762 16.3636 125.154 16.3636ZM130.337 17.4545H128.94V15.8864H127.934V17.4545H126.945V18.3068H127.934V22.3977C127.934 23.5398 128.854 24.0852 129.707 24.0852C130.082 24.0852 130.32 24.017 130.457 23.9659L130.252 23.0625C130.167 23.0795 130.031 23.1136 129.809 23.1136C129.366 23.1136 128.94 22.9773 128.94 22.125V18.3068H130.337V17.4545ZM134.439 24.1364C136.212 24.1364 137.405 22.7898 137.405 20.7614C137.405 18.7159 136.212 17.3693 134.439 17.3693C132.666 17.3693 131.473 18.7159 131.473 20.7614C131.473 22.7898 132.666 24.1364 134.439 24.1364ZM134.439 23.233C133.092 23.233 132.479 22.0739 132.479 20.7614C132.479 19.4489 133.092 18.2727 134.439 18.2727C135.786 18.2727 136.399 19.4489 136.399 20.7614C136.399 22.0739 135.786 23.233 134.439 23.233ZM138.94 24H139.946V19.858C139.946 18.9716 140.645 18.3239 141.599 18.3239C141.868 18.3239 142.145 18.375 142.213 18.392V17.3693C142.098 17.3608 141.833 17.3523 141.684 17.3523C140.9 17.3523 140.218 17.7955 139.98 18.4432H139.912V17.4545H138.94V24ZM144.252 26.4375C145.159 26.4375 145.803 25.956 146.178 24.9545L148.965 17.4716L147.865 17.4545L146.059 22.6705H145.99L144.184 17.4545H143.093L145.513 24.0341L145.326 24.5455C144.968 25.5256 144.507 25.6193 143.775 25.4318L143.519 26.3182C143.621 26.3693 143.911 26.4375 144.252 26.4375Z" fill="#3D3939"/>
</g>
<defs>
<clipPath id="clip0">
<rect width="23" height="22" fill="white" transform="translate(16 9)"/>
</clipPath>
</defs>
</svg>
