<svg width="166" height="40" viewBox="0 0 166 40" fill="none" xmlns="http://www.w3.org/2000/svg">
<g opacity="0.8">
<rect x="0.5" y="0.5" width="165" height="39" rx="4.5" stroke="#444444" stroke-opacity="0.3"/>
<g clip-path="url(#clip0)">
<path fill-rule="evenodd" clip-rule="evenodd" d="M27.5 9C21.1503 9 16 14.0503 16 20.2767C16 25.2579 19.316 29.478 23.8313 31C24.3957 31.0692 24.6074 30.7233 24.6074 30.4465C24.6074 30.1698 24.6074 29.478 24.6074 28.5094C21.4325 29.2013 20.727 26.9874 20.727 26.9874C20.2331 25.673 19.4571 25.327 19.4571 25.327C18.3988 24.6352 19.5276 24.6352 19.5276 24.6352C20.6564 24.7044 21.2914 25.8113 21.2914 25.8113C22.3497 27.5409 23.9724 27.0566 24.6074 26.7799C24.6779 26.0189 25.0307 25.5346 25.3129 25.2579C22.773 24.9811 20.092 24.0126 20.092 19.6541C20.092 18.4088 20.5153 17.4403 21.2914 16.6101C21.2209 16.4025 20.7975 15.2264 21.4325 13.7044C21.4325 13.7044 22.4202 13.4277 24.6074 14.8805C25.5245 14.6038 26.5123 14.5346 27.5 14.5346C28.4877 14.5346 29.4755 14.673 30.3926 14.8805C32.5798 13.4277 33.5675 13.7044 33.5675 13.7044C34.2025 15.2264 33.7791 16.4025 33.7086 16.6792C34.4141 17.4403 34.908 18.478 34.908 19.7233C34.908 24.0818 32.227 24.9811 29.6871 25.2579C30.1104 25.6038 30.4632 26.2956 30.4632 27.3333C30.4632 28.8553 30.4632 30.0314 30.4632 30.4465C30.4632 30.7233 30.6748 31.0692 31.2393 31C35.8252 29.478 39.0706 25.2579 39.0706 20.2767C39 14.0503 33.8497 9 27.5 9Z" fill="#444444"/>
</g>
<path d="M60.0227 18H61.1136C60.7898 16.3125 59.375 15.1534 57.5341 15.1534C55.2969 15.1534 53.7159 16.875 53.7159 19.6364C53.7159 22.3977 55.2841 24.1193 57.6023 24.1193C59.6818 24.1193 61.1648 22.7344 61.1648 20.5739V19.6364H57.8409V20.5739H60.142C60.1122 22.142 59.081 23.1307 57.6023 23.1307C55.983 23.1307 54.7386 21.9034 54.7386 19.6364C54.7386 17.3693 55.983 16.142 57.5341 16.142C58.7955 16.142 59.652 16.8537 60.0227 18ZM65.5827 24.1364C66.9123 24.1364 67.8839 23.4716 68.1907 22.483L67.2191 22.2102C66.9634 22.892 66.3711 23.233 65.5827 23.233C64.4023 23.233 63.5884 22.4702 63.5415 21.0682H68.293V20.642C68.293 18.2045 66.8441 17.3693 65.4805 17.3693C63.7077 17.3693 62.5316 18.767 62.5316 20.7784C62.5316 22.7898 63.6907 24.1364 65.5827 24.1364ZM63.5415 20.1989C63.6097 19.1804 64.3299 18.2727 65.4805 18.2727C66.5714 18.2727 67.2702 19.0909 67.2702 20.1989H63.5415ZM70.8285 20.0625C70.8285 18.9205 71.5359 18.2727 72.4989 18.2727C73.4322 18.2727 73.9989 18.8821 73.9989 19.9091V24H75.0046V19.8409C75.0046 18.1705 74.114 17.3693 72.7887 17.3693C71.8001 17.3693 71.1864 17.8125 70.8796 18.4773H70.7944V17.4545H69.8228V24H70.8285V20.0625ZM79.5866 24.1364C80.9162 24.1364 81.8878 23.4716 82.1946 22.483L81.223 22.2102C80.9673 22.892 80.375 23.233 79.5866 23.233C78.4062 23.233 77.5923 22.4702 77.5455 21.0682H82.2969V20.642C82.2969 18.2045 80.848 17.3693 79.4844 17.3693C77.7116 17.3693 76.5355 18.767 76.5355 20.7784C76.5355 22.7898 77.6946 24.1364 79.5866 24.1364ZM77.5455 20.1989C77.6136 19.1804 78.3338 18.2727 79.4844 18.2727C80.5753 18.2727 81.2741 19.0909 81.2741 20.1989H77.5455ZM83.8267 24H84.8324V19.858C84.8324 18.9716 85.5312 18.3239 86.4858 18.3239C86.7543 18.3239 87.0312 18.375 87.0994 18.392V17.3693C86.9844 17.3608 86.7202 17.3523 86.571 17.3523C85.7869 17.3523 85.1051 17.7955 84.8665 18.4432H84.7983V17.4545H83.8267V24ZM90.2177 24.1534C91.3597 24.1534 91.9563 23.5398 92.1609 23.1136H92.212V24H93.2177V19.6875C93.2177 17.608 91.6325 17.3693 90.7972 17.3693C89.8086 17.3693 88.6836 17.7102 88.1722 18.9034L89.1268 19.2443C89.3484 18.767 89.8725 18.2557 90.8313 18.2557C91.756 18.2557 92.212 18.7457 92.212 19.5852V19.6193C92.212 20.1051 91.7177 20.0625 90.5245 20.2159C89.31 20.3736 87.9847 20.642 87.9847 22.142C87.9847 23.4205 88.9734 24.1534 90.2177 24.1534ZM90.3711 23.25C89.57 23.25 88.9904 22.892 88.9904 22.1932C88.9904 21.4261 89.6893 21.1875 90.4734 21.0852C90.8995 21.0341 92.0415 20.9148 92.212 20.7102V21.6307C92.212 22.4489 91.5643 23.25 90.3711 23.25ZM97.8999 17.4545H96.5021V15.8864H95.4964V17.4545H94.5078V18.3068H95.4964V22.3977C95.4964 23.5398 96.4169 24.0852 97.2692 24.0852C97.6442 24.0852 97.8828 24.017 98.0192 23.9659L97.8146 23.0625C97.7294 23.0795 97.593 23.1136 97.3714 23.1136C96.9283 23.1136 96.5021 22.9773 96.5021 22.125V18.3068H97.8999V17.4545ZM102.087 24.1364C103.416 24.1364 104.388 23.4716 104.695 22.483L103.723 22.2102C103.467 22.892 102.875 23.233 102.087 23.233C100.906 23.233 100.092 22.4702 100.045 21.0682H104.797V20.642C104.797 18.2045 103.348 17.3693 101.984 17.3693C100.212 17.3693 99.0355 18.767 99.0355 20.7784C99.0355 22.7898 100.195 24.1364 102.087 24.1364ZM100.045 20.1989C100.114 19.1804 100.834 18.2727 101.984 18.2727C103.075 18.2727 103.774 19.0909 103.774 20.1989H100.045ZM109.361 16.2102H112.105V24H113.162V16.2102H115.906V15.2727H109.361V16.2102ZM119.111 24.1364C120.884 24.1364 122.077 22.7898 122.077 20.7614C122.077 18.7159 120.884 17.3693 119.111 17.3693C117.338 17.3693 116.145 18.7159 116.145 20.7614C116.145 22.7898 117.338 24.1364 119.111 24.1364ZM119.111 23.233C117.764 23.233 117.151 22.0739 117.151 20.7614C117.151 19.4489 117.764 18.2727 119.111 18.2727C120.457 18.2727 121.071 19.4489 121.071 20.7614C121.071 22.0739 120.457 23.233 119.111 23.233ZM123.612 24H124.618V21.5497L125.321 20.8977L127.771 24H129.049L126.079 20.25L128.845 17.4545H127.6L124.737 20.3693H124.618V15.2727H123.612V24ZM132.614 24.1364C133.944 24.1364 134.915 23.4716 135.222 22.483L134.25 22.2102C133.995 22.892 133.402 23.233 132.614 23.233C131.434 23.233 130.62 22.4702 130.573 21.0682H135.324V20.642C135.324 18.2045 133.875 17.3693 132.512 17.3693C130.739 17.3693 129.563 18.767 129.563 20.7784C129.563 22.7898 130.722 24.1364 132.614 24.1364ZM130.573 20.1989C130.641 19.1804 131.361 18.2727 132.512 18.2727C133.603 18.2727 134.301 19.0909 134.301 20.1989H130.573ZM137.86 20.0625C137.86 18.9205 138.567 18.2727 139.53 18.2727C140.463 18.2727 141.03 18.8821 141.03 19.9091V24H142.036V19.8409C142.036 18.1705 141.145 17.3693 139.82 17.3693C138.831 17.3693 138.218 17.8125 137.911 18.4773H137.826V17.4545H136.854V24H137.86V20.0625Z" fill="#3D3939"/>
</g>
<defs>
<clipPath id="clip0">
<rect width="23" height="22" fill="white" transform="translate(16 9)"/>
</clipPath>
</defs>
</svg>
