<svg width="122" height="56" viewBox="0 0 122 56" fill="none" xmlns="http://www.w3.org/2000/svg">
<g filter="url(#filter0_d)">
<rect x="5" y="5" width="102" height="36" rx="5" fill="#4B4E6D"/>
</g>
<path d="M44.8242 20.4766C44.6523 20.4766 44.5059 20.418 44.3848 20.3008C44.2637 20.1836 44.2031 20.0352 44.2031 19.8555C44.2031 19.6758 44.2637 19.5273 44.3848 19.4102C44.5059 19.2891 44.6523 19.2285 44.8242 19.2285C45 19.2285 45.1484 19.2891 45.2695 19.4102C45.3945 19.5273 45.457 19.6758 45.457 19.8555C45.457 20.0273 45.3945 20.1738 45.2695 20.2949C45.1484 20.416 45 20.4766 44.8242 20.4766ZM45.293 28H44.332V22H45.293V28ZM52.2188 28H51.2578V24.5781C51.2578 23.3047 50.793 22.668 49.8633 22.668C49.3828 22.668 48.9844 22.8496 48.668 23.2129C48.3555 23.5723 48.1992 24.0273 48.1992 24.5781V28H47.2383V22H48.1992V22.9961H48.2227C48.6758 22.2383 49.332 21.8594 50.1914 21.8594C50.8477 21.8594 51.3496 22.0723 51.6973 22.498C52.0449 22.9199 52.2188 23.5312 52.2188 24.332V28ZM53.6719 27.7832V26.752C54.1953 27.1387 54.7715 27.332 55.4004 27.332C56.2441 27.332 56.666 27.0508 56.666 26.4883C56.666 26.3281 56.6289 26.1934 56.5547 26.084C56.4844 25.9707 56.3867 25.8711 56.2617 25.7852C56.1406 25.6992 55.9961 25.623 55.8281 25.5566C55.6641 25.4863 55.4863 25.4141 55.2949 25.3398C55.0293 25.2344 54.7949 25.1289 54.5918 25.0234C54.3926 24.9141 54.2246 24.793 54.0879 24.6602C53.9551 24.5234 53.8535 24.3691 53.7832 24.1973C53.7168 24.0254 53.6836 23.8242 53.6836 23.5938C53.6836 23.3125 53.748 23.0645 53.877 22.8496C54.0059 22.6309 54.1777 22.4492 54.3926 22.3047C54.6074 22.1562 54.8516 22.0449 55.125 21.9707C55.4023 21.8965 55.6875 21.8594 55.9805 21.8594C56.5 21.8594 56.9648 21.9492 57.375 22.1289V23.1016C56.9336 22.8125 56.4258 22.668 55.8516 22.668C55.6719 22.668 55.5098 22.6895 55.3652 22.7324C55.2207 22.7715 55.0957 22.8281 54.9902 22.9023C54.8887 22.9766 54.8086 23.0664 54.75 23.1719C54.6953 23.2734 54.668 23.3867 54.668 23.5117C54.668 23.668 54.6953 23.7988 54.75 23.9043C54.8086 24.0098 54.8926 24.1035 55.002 24.1855C55.1113 24.2676 55.2441 24.3418 55.4004 24.4082C55.5566 24.4746 55.7344 24.5469 55.9336 24.625C56.1992 24.7266 56.4375 24.832 56.6484 24.9414C56.8594 25.0469 57.0391 25.168 57.1875 25.3047C57.3359 25.4375 57.4492 25.5918 57.5273 25.7676C57.6094 25.9434 57.6504 26.1523 57.6504 26.3945C57.6504 26.6914 57.584 26.9492 57.4512 27.168C57.3223 27.3867 57.1484 27.5684 56.9297 27.7129C56.7109 27.8574 56.459 27.9648 56.1738 28.0352C55.8887 28.1055 55.5898 28.1406 55.2773 28.1406C54.6602 28.1406 54.125 28.0215 53.6719 27.7832ZM61.916 27.9414C61.6895 28.0664 61.3906 28.1289 61.0195 28.1289C59.9688 28.1289 59.4434 27.543 59.4434 26.3711V22.8203H58.4121V22H59.4434V20.5352L60.4043 20.2246V22H61.916V22.8203H60.4043V26.2012C60.4043 26.6035 60.4727 26.8906 60.6094 27.0625C60.7461 27.2344 60.9727 27.3203 61.2891 27.3203C61.5312 27.3203 61.7402 27.2539 61.916 27.1211V27.9414ZM67.4941 28H66.5332V27.0625H66.5098C66.0918 27.7812 65.4766 28.1406 64.6641 28.1406C64.0664 28.1406 63.5977 27.9824 63.2578 27.666C62.9219 27.3496 62.7539 26.9297 62.7539 26.4062C62.7539 25.2852 63.4141 24.6328 64.7344 24.4492L66.5332 24.1973C66.5332 23.1777 66.1211 22.668 65.2969 22.668C64.5742 22.668 63.9219 22.9141 63.3398 23.4062V22.4219C63.9297 22.0469 64.6094 21.8594 65.3789 21.8594C66.7891 21.8594 67.4941 22.6055 67.4941 24.0977V28ZM66.5332 24.9648L65.0859 25.1641C64.6406 25.2266 64.3047 25.3379 64.0781 25.498C63.8516 25.6543 63.7383 25.9336 63.7383 26.3359C63.7383 26.6289 63.8418 26.8691 64.0488 27.0566C64.2598 27.2402 64.5391 27.332 64.8867 27.332C65.3633 27.332 65.7559 27.166 66.0645 26.834C66.377 26.498 66.5332 26.0742 66.5332 25.5625V24.9648ZM70.2656 28H69.3047V19.1172H70.2656V28ZM73.1719 28H72.2109V19.1172H73.1719V28ZM75.4512 28.1289C75.2715 28.1289 75.1172 28.0645 74.9883 27.9355C74.8633 27.8066 74.8008 27.6523 74.8008 27.4727C74.8008 27.293 74.8633 27.1387 74.9883 27.0098C75.1172 26.877 75.2715 26.8105 75.4512 26.8105C75.6348 26.8105 75.791 26.877 75.9199 27.0098C76.0488 27.1387 76.1133 27.293 76.1133 27.4727C76.1133 27.6523 76.0488 27.8066 75.9199 27.9355C75.791 28.0645 75.6348 28.1289 75.4512 28.1289ZM77.3555 27.7832V26.752C77.8789 27.1387 78.4551 27.332 79.084 27.332C79.9277 27.332 80.3496 27.0508 80.3496 26.4883C80.3496 26.3281 80.3125 26.1934 80.2383 26.084C80.168 25.9707 80.0703 25.8711 79.9453 25.7852C79.8242 25.6992 79.6797 25.623 79.5117 25.5566C79.3477 25.4863 79.1699 25.4141 78.9785 25.3398C78.7129 25.2344 78.4785 25.1289 78.2754 25.0234C78.0762 24.9141 77.9082 24.793 77.7715 24.6602C77.6387 24.5234 77.5371 24.3691 77.4668 24.1973C77.4004 24.0254 77.3672 23.8242 77.3672 23.5938C77.3672 23.3125 77.4316 23.0645 77.5605 22.8496C77.6895 22.6309 77.8613 22.4492 78.0762 22.3047C78.291 22.1562 78.5352 22.0449 78.8086 21.9707C79.0859 21.8965 79.3711 21.8594 79.6641 21.8594C80.1836 21.8594 80.6484 21.9492 81.0586 22.1289V23.1016C80.6172 22.8125 80.1094 22.668 79.5352 22.668C79.3555 22.668 79.1934 22.6895 79.0488 22.7324C78.9043 22.7715 78.7793 22.8281 78.6738 22.9023C78.5723 22.9766 78.4922 23.0664 78.4336 23.1719C78.3789 23.2734 78.3516 23.3867 78.3516 23.5117C78.3516 23.668 78.3789 23.7988 78.4336 23.9043C78.4922 24.0098 78.5762 24.1035 78.6855 24.1855C78.7949 24.2676 78.9277 24.3418 79.084 24.4082C79.2402 24.4746 79.418 24.5469 79.6172 24.625C79.8828 24.7266 80.1211 24.832 80.332 24.9414C80.543 25.0469 80.7227 25.168 80.8711 25.3047C81.0195 25.4375 81.1328 25.5918 81.2109 25.7676C81.293 25.9434 81.334 26.1523 81.334 26.3945C81.334 26.6914 81.2676 26.9492 81.1348 27.168C81.0059 27.3867 80.832 27.5684 80.6133 27.7129C80.3945 27.8574 80.1426 27.9648 79.8574 28.0352C79.5723 28.1055 79.2734 28.1406 78.9609 28.1406C78.3438 28.1406 77.8086 28.0215 77.3555 27.7832ZM87.7969 28H86.8359V24.543C86.8359 23.293 86.3711 22.668 85.4414 22.668C84.9727 22.668 84.5781 22.8496 84.2578 23.2129C83.9375 23.5723 83.7773 24.0352 83.7773 24.6016V28H82.8164V19.1172H83.7773V22.9961H83.8008C84.2617 22.2383 84.918 21.8594 85.7695 21.8594C87.1211 21.8594 87.7969 22.6738 87.7969 24.3027V28Z" fill="white"/>
<path d="M33.0597 23H31.9997V19.6667C31.9997 19.3 31.6997 19 31.333 19H28.6663C28.2997 19 27.9997 19.3 27.9997 19.6667V23H26.9397C26.3463 23 26.0463 23.72 26.4663 24.14L29.5263 27.2C29.7863 27.46 30.2063 27.46 30.4663 27.2L33.5263 24.14C33.9463 23.72 33.653 23 33.0597 23ZM25.333 29.6667C25.333 30.0333 25.633 30.3333 25.9997 30.3333H33.9997C34.3663 30.3333 34.6663 30.0333 34.6663 29.6667C34.6663 29.3 34.3663 29 33.9997 29H25.9997C25.633 29 25.333 29.3 25.333 29.6667Z" fill="white"/>
<defs>
<filter id="filter0_d" x="0" y="0" width="122" height="56" filterUnits="userSpaceOnUse" color-interpolation-filters="sRGB">
<feFlood flood-opacity="0" result="BackgroundImageFix"/>
<feColorMatrix in="SourceAlpha" type="matrix" values="0 0 0 0 0 0 0 0 0 0 0 0 0 0 0 0 0 0 127 0"/>
<feOffset dx="5" dy="5"/>
<feGaussianBlur stdDeviation="5"/>
<feColorMatrix type="matrix" values="0 0 0 0 0.294118 0 0 0 0 0.305882 0 0 0 0 0.427451 0 0 0 0.1 0"/>
<feBlend mode="normal" in2="BackgroundImageFix" result="effect1_dropShadow"/>
<feBlend mode="normal" in="SourceGraphic" in2="effect1_dropShadow" result="shape"/>
</filter>
</defs>
</svg>
