<svg width="126" height="52" viewBox="0 0 126 52" fill="none" xmlns="http://www.w3.org/2000/svg">
<g opacity="0.9">
<path opacity="0.9" fill-rule="evenodd" clip-rule="evenodd" d="M16.8239 0.0756847C16.2946 1.89212 15.652 3.70855 15.1983 5.56283C14.4801 8.59022 13.7996 11.6555 13.346 14.7585C13.0435 16.7642 13.4594 18.8077 14.291 20.6619C14.5935 21.3809 15.2739 21.9864 15.9166 22.4784C17.2775 23.538 18.1092 24.8246 18.1092 26.6032C18.0714 28.798 18.336 31.0307 18.0336 33.1878C17.6177 35.9503 16.8617 38.6371 16.03 41.286C14.9337 44.8432 13.5728 48.3247 12.1741 51.8441C12.3253 50.5574 12.4009 49.3086 12.5899 48.022C12.9301 45.3352 13.3082 42.6484 13.6862 39.9615C14.102 37.1612 13.8752 34.3987 12.9301 31.7498C12.5899 30.8415 11.985 29.9712 11.3046 29.29C10.1327 28.1547 9.75466 26.7924 9.64125 25.2787C9.14981 18.5806 10.9266 12.4501 13.6106 6.47105C14.5179 4.4654 15.5007 2.45975 16.4458 0.454108C16.5214 0.302739 16.6348 0.151369 16.7104 0C16.7482 0.0378424 16.7861 0.0378424 16.8239 0.0756847Z" fill="#7F0000"/>
<path opacity="0.9" fill-rule="evenodd" clip-rule="evenodd" d="M2.94984 41.0211C1.51332 39.8859 0.757254 38.5614 0.379223 36.972C-0.376841 33.8311 0.1146 30.728 0.832861 27.6628C2.34499 21.2296 5.36924 15.5154 8.96055 10.0661C11.1909 6.66026 13.6481 3.36797 15.9919 0C16.0675 0.0378424 16.181 0.113527 16.2566 0.15137C16.1053 0.416266 15.9919 0.719005 15.8407 0.983902C13.2323 5.82773 10.5861 10.5959 8.77153 15.8181C7.63743 18.9969 6.99478 22.2892 6.91917 25.6571C6.88137 27.7385 7.33501 29.7063 8.50691 31.447C8.62032 31.6362 8.69592 32.0147 8.58251 32.166C6.76796 35.1177 4.8778 38.0316 2.94984 41.0211Z" fill="black"/>
<path opacity="0.9" fill-rule="evenodd" clip-rule="evenodd" d="M12.7041 51.8062C14.1028 48.4004 15.5771 45.0324 16.9003 41.5887C18.6014 37.1612 19.9623 32.6201 20.0757 27.8141C20.1513 24.8246 19.9245 21.9486 17.9209 19.5266C17.8075 19.3753 17.7697 19.0347 17.8453 18.8833C19.4331 15.8181 21.0586 12.715 22.7597 9.5741C24.0073 10.3688 24.7633 11.3148 25.2926 12.488C26.1998 14.4558 26.3889 16.5749 26.3132 18.732C26.1998 23.1974 25.1413 27.4357 23.5914 31.5984C20.8696 38.7884 17.0137 45.4108 12.7041 51.8062Z" fill="black"/>
<path opacity="0.9" fill-rule="evenodd" clip-rule="evenodd" d="M46.8018 27.4355C50.2418 27.4355 53.6441 27.322 57.0086 27.4734C59.3146 27.5491 60.9779 29.3276 61.4316 31.8631C61.734 33.6038 61.734 35.3824 61.0158 37.0475C60.2219 38.9775 58.7476 40.0749 56.7062 40.1127C53.5307 40.2262 50.3175 40.1506 47.1042 40.1506C47.0286 40.1506 46.953 40.1127 46.8018 40.0749C46.8018 35.9122 46.8018 31.7117 46.8018 27.4355ZM49.7504 28.9492C49.7504 32.2415 49.7504 35.3446 49.7504 38.599C51.9052 38.599 54.0222 38.5612 56.1391 38.599C57.1598 38.6369 57.8025 38.1449 58.1049 37.2745C58.8988 34.9662 58.9366 32.6199 58.0671 30.3115C57.8781 29.7439 57.122 29.0627 56.5928 29.0249C54.3624 28.8735 52.0942 28.9492 49.7504 28.9492Z" fill="black"/>
<path opacity="0.9" fill-rule="evenodd" clip-rule="evenodd" d="M65.6663 40.1132C65.6663 39.5834 65.6663 39.1671 65.6663 38.6373C66.6114 38.6373 67.5187 38.6373 68.4637 38.6373C70.0515 38.6373 71.677 38.6373 73.2647 38.6373C74.5122 38.6373 75.3817 37.7669 75.3817 36.6695C75.3817 35.4964 74.5122 34.6639 73.2269 34.6639C71.7148 34.6639 70.2027 34.7017 68.6906 34.626C67.8967 34.5882 67.1028 34.4747 66.3468 34.2476C64.9102 33.7935 64.1542 32.6204 64.0786 31.0688C64.0408 29.6308 64.759 28.4577 66.1577 27.8901C66.6492 27.7009 67.2162 27.5873 67.7455 27.4738C68.1613 27.3981 68.615 27.436 69.0308 27.436C71.4124 27.436 73.7562 27.436 76.2134 27.436C76.2134 27.9279 76.2134 28.3442 76.2134 28.9497C75.1549 28.9497 74.0208 28.9497 72.9245 28.9497C71.677 28.9497 70.4673 28.9497 69.2198 28.9497C67.5187 28.9497 66.7248 29.593 66.687 30.9553C66.687 32.2798 67.5565 32.9988 69.2576 32.9988C70.6563 32.9988 72.0928 32.961 73.4916 33.0367C74.3232 33.0745 75.1549 33.2259 75.911 33.5286C77.2341 34.0584 77.8767 35.1558 77.9145 36.5938C77.9523 37.994 77.3097 38.9779 76.1 39.5455C75.4951 39.8483 74.8147 40.1132 74.172 40.151C71.3746 40.151 68.5393 40.1132 65.6663 40.1132Z" fill="black"/>
<path opacity="0.9" fill-rule="evenodd" clip-rule="evenodd" d="M42.7197 27.5113C42.7197 27.9654 42.7197 28.3817 42.7197 28.9493C41.5856 28.9493 40.4515 28.9493 39.3552 28.9493C37.9943 28.9493 36.6334 28.9493 35.3103 28.9493C33.9872 28.9871 33.2311 29.7818 33.2311 31.0306C33.2689 32.2416 34.0628 32.9984 35.3103 32.9984C36.898 32.9984 38.4479 32.9606 39.9979 33.0363C40.7917 33.0741 41.5856 33.2255 42.3416 33.4904C43.7026 34.0202 44.383 35.0798 44.4208 36.5556C44.4586 37.9936 43.7782 38.9775 42.5685 39.583C42.0014 39.8479 41.3588 40.1506 40.7161 40.1506C37.8809 40.2263 35.0834 40.1885 32.1726 40.1885C32.1726 39.7344 32.1726 39.2803 32.1726 38.7126C32.5128 38.7126 32.8531 38.7126 33.1933 38.7126C35.3859 38.7126 37.5784 38.7126 39.7332 38.7126C40.9807 38.7126 41.8124 37.8423 41.8124 36.707C41.8124 35.5717 40.9807 34.7392 39.7332 34.7013C38.1077 34.6635 36.4822 34.7392 34.8566 34.6635C33.9493 34.5878 33.0043 34.4364 32.2104 34.0202C29.98 32.8849 29.9044 29.5926 32.0592 28.306C32.664 27.9654 33.3823 27.6248 34.025 27.6248C36.898 27.4734 39.771 27.5113 42.7197 27.5113Z" fill="black"/>
<path opacity="0.9" fill-rule="evenodd" clip-rule="evenodd" d="M104.83 27.7387C105.51 27.7387 106.153 27.7387 106.909 27.7387C106.909 29.2146 106.909 30.6526 106.909 32.2041C108.194 32.2041 109.366 32.2041 110.538 32.2041C110.954 32.2041 111.332 32.2041 111.748 32.2041C114.621 32.1284 116.586 34.0962 115.679 37.6534C115.301 39.1671 113.94 40.0753 112.201 40.151C110.954 40.1888 109.744 40.1888 108.497 40.151C106.493 40.0753 104.981 38.9022 104.905 37.0101C104.716 33.9449 104.83 30.8418 104.83 27.7387ZM106.909 33.68C106.984 35.0801 107.022 36.3289 107.136 37.5777C107.211 38.3724 107.778 38.7887 108.61 38.7508C109.706 38.713 110.803 38.7508 111.937 38.713C112.995 38.713 113.487 38.2967 113.6 37.275C113.676 36.4803 113.676 35.6856 113.562 34.8909C113.487 34.2476 113.146 33.68 112.39 33.68C110.651 33.6421 108.875 33.68 106.909 33.68Z" fill="black"/>
<path opacity="0.9" fill-rule="evenodd" clip-rule="evenodd" d="M103.242 40.1127C100.558 40.1127 97.9878 40.264 95.4172 40.0748C93.1112 39.9235 92.0149 38.2584 92.1661 35.7608C92.2795 33.6038 93.6404 32.2793 95.833 32.2036C97.0427 32.1658 98.2902 32.1658 99.4999 32.2036C101.806 32.2793 103.167 33.7173 103.205 36.0257C103.28 37.3502 103.242 38.6747 103.242 40.1127ZM101.05 38.7125C101.05 37.6151 101.05 36.669 101.05 35.723C101.05 35.4581 100.974 35.1932 100.936 34.8904C100.785 34.02 100.256 33.5281 99.3487 33.5659C98.5926 33.6038 97.7988 33.6038 97.0427 33.6038C94.5855 33.6416 94.2075 34.0957 94.3587 36.5555C94.3965 36.9339 94.3587 37.4259 94.5855 37.7286C94.8501 38.107 95.3038 38.599 95.7196 38.6368C97.4207 38.7503 99.1975 38.7125 101.05 38.7125Z" fill="black"/>
<path opacity="0.9" fill-rule="evenodd" clip-rule="evenodd" d="M80.4092 27.4736C81.5433 27.4736 82.4505 27.4736 83.4334 27.4736C83.4334 29.5171 83.3956 31.5228 83.4334 33.4906C83.4712 34.5123 83.4712 35.5341 83.6981 36.518C84.0383 38.1073 84.7187 38.675 86.3443 38.5993C87.9698 38.5236 89.5953 38.5993 91.2965 38.5993C91.2965 39.1291 91.2965 39.621 91.2965 40.113C89.1795 40.113 87.0625 40.2644 85.0212 40.0752C82.7908 39.8859 81.0896 38.3344 80.825 36.026C80.447 33.2257 80.5226 30.3875 80.4092 27.4736Z" fill="black"/>
<path opacity="0.9" fill-rule="evenodd" clip-rule="evenodd" d="M124.715 32.2795C124.715 32.6579 124.715 32.9985 124.715 33.4904C123.127 33.4904 121.54 33.4526 119.99 33.5283C119.612 33.5283 119.082 33.831 118.931 34.1716C118.78 34.4365 119.007 35.0041 119.234 35.3069C119.385 35.5339 119.838 35.6096 120.141 35.6096C121.124 35.6475 122.107 35.6096 123.089 35.6475C124.942 35.7231 126 36.5557 126 37.918C125.962 39.1668 124.753 40.1129 123.052 40.1129C121.464 40.1507 119.876 40.1129 118.213 40.1129C118.213 39.6966 118.213 39.3182 118.213 38.8641C118.856 38.8641 119.498 38.8641 120.141 38.8641C121.086 38.8641 122.031 38.8641 123.014 38.8641C123.657 38.8641 124.224 38.6749 124.224 37.918C124.224 37.1612 123.732 36.8206 123.014 36.8206C122.069 36.8206 121.124 36.8584 120.141 36.7827C119.612 36.7449 119.045 36.6692 118.515 36.48C117.532 36.1016 116.928 35.1177 117.041 34.1716C117.117 33.2255 117.873 32.3173 119.007 32.2795C120.859 32.2038 122.787 32.2795 124.715 32.2795Z" fill="black"/>
</g>
</svg>
